<?xml version="1.0" encoding="UTF-8" standalone="no"?>
<!DOCTYPE svg PUBLIC "-//W3C//DTD SVG 1.1//EN"
 "http://www.w3.org/Graphics/SVG/1.1/DTD/svg11.dtd">
<!-- Generated by graphviz version 12.2.0 (20241103.1931)
 -->
<!-- Title: ProblemDiagram Pages: 1 -->
<svg width="1476pt" height="1409pt"
 viewBox="0.00 0.00 1475.75 1409.41" xmlns="http://www.w3.org/2000/svg" xmlns:xlink="http://www.w3.org/1999/xlink">
<g id="graph0" class="graph" transform="scale(1 1) rotate(0) translate(4 1405.41)">
<title>ProblemDiagram</title>
<polygon fill="white" stroke="none" points="-4,4 -4,-1405.41 1471.75,-1405.41 1471.75,4 -4,4"/>
<!-- orange_0 -->
<g id="node1" class="node">
<title>orange_0</title>
<polygon fill="orange" stroke="black" points="852,-157.41 732.5,-157.41 732.5,-121.41 852,-121.41 852,-157.41"/>
<text text-anchor="middle" x="792.25" y="-133.24" font-family="Times New Roman,serif" font-size="14.00">失物招领系统</text>
</g>
<!-- lightgrey_3 -->
<g id="node31" class="node">
<title>lightgrey_3</title>
<polygon fill="lightgrey" stroke="black" points="1045.75,-211.41 960.75,-211.41 960.75,-175.41 1045.75,-175.41 1045.75,-211.41"/>
<text text-anchor="middle" x="1003.25" y="-187.24" font-family="Times New Roman,serif" font-size="14.00">招领信息</text>
</g>
<!-- orange_0&#45;&gt;lightgrey_3 -->
<g id="edge34" class="edge">
<title>orange_0&#45;&gt;lightgrey_3</title>
<path fill="none" stroke="black" d="M852.33,-154.83C858.3,-156.38 864.27,-157.93 870,-159.41 896.05,-166.16 925.01,-173.61 949.16,-179.81"/>
<polygon fill="black" stroke="black" points="948.23,-183.18 958.78,-182.28 949.97,-176.4 948.23,-183.18"/>
<text text-anchor="middle" x="906.38" y="-181.15" font-family="Times New Roman,serif" font-size="14.00">发送/接收</text>
</g>
<!-- lightgrey_4 -->
<g id="node32" class="node">
<title>lightgrey_4</title>
<polygon fill="lightgrey" stroke="black" points="1045.75,-157.41 960.75,-157.41 960.75,-121.41 1045.75,-121.41 1045.75,-157.41"/>
<text text-anchor="middle" x="1003.25" y="-133.24" font-family="Times New Roman,serif" font-size="14.00">匹配结果</text>
</g>
<!-- orange_0&#45;&gt;lightgrey_4 -->
<g id="edge36" class="edge">
<title>orange_0&#45;&gt;lightgrey_4</title>
<path fill="none" stroke="black" d="M852.3,-139.41C882.78,-139.41 919.66,-139.41 949.22,-139.41"/>
<polygon fill="black" stroke="black" points="949.06,-142.91 959.06,-139.41 949.06,-135.91 949.06,-142.91"/>
<text text-anchor="middle" x="906.38" y="-142.61" font-family="Times New Roman,serif" font-size="14.00">发送/接收</text>
</g>
<!-- lightgrey_5 -->
<g id="node33" class="node">
<title>lightgrey_5</title>
<polygon fill="lightgrey" stroke="black" points="1045.75,-103.41 960.75,-103.41 960.75,-67.41 1045.75,-67.41 1045.75,-103.41"/>
<text text-anchor="middle" x="1003.25" y="-79.24" font-family="Times New Roman,serif" font-size="14.00">认领通知</text>
</g>
<!-- orange_0&#45;&gt;lightgrey_5 -->
<g id="edge38" class="edge">
<title>orange_0&#45;&gt;lightgrey_5</title>
<path fill="none" stroke="black" d="M852.31,-123.56C858.28,-121.98 864.26,-120.41 870,-118.91 896.12,-112.12 925.19,-104.73 949.41,-98.63"/>
<polygon fill="black" stroke="black" points="950.21,-102.04 959.05,-96.21 948.5,-95.25 950.21,-102.04"/>
<text text-anchor="middle" x="906.38" y="-122.11" font-family="Times New Roman,serif" font-size="14.00">发送/接收</text>
</g>
<!-- lightblue_0 -->
<g id="node2" class="node">
<title>lightblue_0</title>
<ellipse fill="lightblue" stroke="black" cx="564" cy="-598.41" rx="54.06" ry="18"/>
<text text-anchor="middle" x="564" y="-592.24" font-family="Times New Roman,serif" font-size="14.00">普通用户</text>
</g>
<!-- lightblue_1 -->
<g id="node3" class="node">
<title>lightblue_1</title>
<ellipse fill="lightblue" stroke="black" cx="564" cy="-1167.41" rx="43.09" ry="18"/>
<text text-anchor="middle" x="564" y="-1161.24" font-family="Times New Roman,serif" font-size="14.00">管理员</text>
</g>
<!-- khaki_0 -->
<g id="node4" class="node">
<title>khaki_0</title>
<polygon fill="khaki" stroke="black" points="1239.5,-157.41 1154.5,-157.41 1154.5,-121.41 1239.5,-121.41 1239.5,-157.41"/>
<text text-anchor="middle" x="1197" y="-133.24" font-family="Times New Roman,serif" font-size="14.00">手机设备</text>
</g>
<!-- lightgrey_0 -->
<g id="node28" class="node">
<title>lightgrey_0</title>
<polygon fill="lightgrey" stroke="black" points="1467.75,-284.41 1348.25,-284.41 1348.25,-248.41 1467.75,-248.41 1467.75,-284.41"/>
<text text-anchor="middle" x="1408" y="-260.24" font-family="Times New Roman,serif" font-size="14.00">物品基本信息</text>
</g>
<!-- khaki_0&#45;&gt;lightgrey_0 -->
<g id="edge24" class="edge">
<title>khaki_0&#45;&gt;lightgrey_0</title>
<path fill="none" stroke="black" d="M1222.17,-157.84C1232.81,-165.7 1245.58,-174.79 1257.5,-182.41 1291.64,-204.24 1331.74,-226.6 1361.81,-242.76"/>
<polygon fill="black" stroke="black" points="1359.8,-245.65 1370.27,-247.28 1363.1,-239.48 1359.8,-245.65"/>
<text text-anchor="middle" x="1293.88" y="-228.6" font-family="Times New Roman,serif" font-size="14.00">发送/接收</text>
</g>
<!-- lightgrey_1 -->
<g id="node29" class="node">
<title>lightgrey_1</title>
<polygon fill="lightgrey" stroke="black" points="1450.5,-194.41 1365.5,-194.41 1365.5,-158.41 1450.5,-158.41 1450.5,-194.41"/>
<text text-anchor="middle" x="1408" y="-170.24" font-family="Times New Roman,serif" font-size="14.00">物品图片</text>
</g>
<!-- khaki_0&#45;&gt;lightgrey_1 -->
<g id="edge26" class="edge">
<title>khaki_0&#45;&gt;lightgrey_1</title>
<path fill="none" stroke="black" d="M1239.79,-146.81C1272.68,-152.63 1318.73,-160.79 1354.17,-167.06"/>
<polygon fill="black" stroke="black" points="1353.33,-170.47 1363.79,-168.76 1354.55,-163.57 1353.33,-170.47"/>
<text text-anchor="middle" x="1293.88" y="-165.52" font-family="Times New Roman,serif" font-size="14.00">发送/接收</text>
</g>
<!-- lightgrey_2 -->
<g id="node30" class="node">
<title>lightgrey_2</title>
<polygon fill="lightgrey" stroke="black" points="1467.75,-129.41 1348.25,-129.41 1348.25,-93.41 1467.75,-93.41 1467.75,-129.41"/>
<text text-anchor="middle" x="1408" y="-105.24" font-family="Times New Roman,serif" font-size="14.00">失物发布信息</text>
</g>
<!-- khaki_0&#45;&gt;lightgrey_2 -->
<g id="edge28" class="edge">
<title>khaki_0&#45;&gt;lightgrey_2</title>
<path fill="none" stroke="black" d="M1239.83,-130.06C1245.75,-128.9 1251.76,-127.81 1257.5,-126.91 1283.21,-122.89 1311.58,-119.65 1336.63,-117.19"/>
<polygon fill="black" stroke="black" points="1336.75,-120.7 1346.38,-116.26 1336.09,-113.73 1336.75,-120.7"/>
<text text-anchor="middle" x="1293.88" y="-130.11" font-family="Times New Roman,serif" font-size="14.00">发送/接收</text>
</g>
<!-- lightgrey_7 -->
<g id="node35" class="node">
<title>lightgrey_7</title>
<polygon fill="lightgrey" stroke="black" points="1467.75,-53.41 1348.25,-53.41 1348.25,-17.41 1467.75,-17.41 1467.75,-53.41"/>
<text text-anchor="middle" x="1408" y="-29.24" font-family="Times New Roman,serif" font-size="14.00">身份验证数据</text>
</g>
<!-- khaki_0&#45;&gt;lightgrey_7 -->
<g id="edge30" class="edge">
<title>khaki_0&#45;&gt;lightgrey_7</title>
<path fill="none" stroke="black" d="M1221.85,-121.03C1232.44,-113.34 1245.25,-104.65 1257.5,-97.91 1285.25,-82.66 1317.5,-68.74 1344.93,-57.93"/>
<polygon fill="black" stroke="black" points="1346.11,-61.22 1354.16,-54.34 1343.57,-54.7 1346.11,-61.22"/>
<text text-anchor="middle" x="1293.88" y="-101.11" font-family="Times New Roman,serif" font-size="14.00">发送/接收</text>
</g>
<!-- khaki_1 -->
<g id="node5" class="node">
<title>khaki_1</title>
<polygon fill="khaki" stroke="black" points="240.25,-157.41 155.25,-157.41 155.25,-121.41 240.25,-121.41 240.25,-157.41"/>
<text text-anchor="middle" x="197.75" y="-133.24" font-family="Times New Roman,serif" font-size="14.00">电脑终端</text>
</g>
<!-- lightgrey_8 -->
<g id="node36" class="node">
<title>lightgrey_8</title>
<polygon fill="lightgrey" stroke="black" points="623.75,-157.41 504.25,-157.41 504.25,-121.41 623.75,-121.41 623.75,-157.41"/>
<text text-anchor="middle" x="564" y="-133.24" font-family="Times New Roman,serif" font-size="14.00">身份审核请求</text>
</g>
<!-- khaki_1&#45;&gt;lightgrey_8 -->
<g id="edge32" class="edge">
<title>khaki_1&#45;&gt;lightgrey_8</title>
<path fill="none" stroke="black" d="M240.53,-139.41C302.12,-139.41 418.04,-139.41 492.82,-139.41"/>
<polygon fill="black" stroke="black" points="492.49,-142.91 502.49,-139.41 492.49,-135.91 492.49,-142.91"/>
<text text-anchor="middle" x="449.88" y="-142.61" font-family="Times New Roman,serif" font-size="14.00">发送/接收</text>
</g>
<!-- white_0 -->
<g id="node6" class="node">
<title>white_0</title>
<polygon fill="white" stroke="black" points="329.12,-1022.41 60.38,-1022.41 60.38,-986.41 335.12,-986.41 335.12,-1016.41 329.12,-1022.41"/>
<polyline fill="none" stroke="black" points="329.12,-1022.41 329.12,-1016.41"/>
<polyline fill="none" stroke="black" points="335.12,-1016.41 329.12,-1016.41"/>
<text text-anchor="middle" x="197.75" y="-998.24" font-family="Times New Roman,serif" font-size="14.00">搭建方便用户进行失物招领的平台</text>
</g>
<!-- white_0&#45;&gt;lightblue_0 -->
<g id="edge1" class="edge">
<title>white_0&#45;&gt;lightblue_0</title>
<path fill="none" stroke="black" d="M335.32,-1015.75C388.74,-1012.81 446.59,-999.35 486.25,-961.41 534.41,-915.35 554.86,-706.58 560.93,-628.23"/>
<polygon fill="black" stroke="black" points="564.41,-628.57 561.67,-618.33 557.43,-628.05 564.41,-628.57"/>
<text text-anchor="middle" x="449.88" y="-1001.13" font-family="Times New Roman,serif" font-size="14.00">引用</text>
</g>
<!-- white_0&#45;&gt;lightblue_1 -->
<g id="edge2" class="edge">
<title>white_0&#45;&gt;lightblue_1</title>
<path fill="none" stroke="black" d="M335.48,-1013.57C386.93,-1022.72 443.3,-1040.19 486.25,-1073.16 510.56,-1091.83 531.99,-1119.65 545.98,-1140.23"/>
<polygon fill="black" stroke="black" points="542.96,-1142.01 551.4,-1148.42 548.8,-1138.15 542.96,-1142.01"/>
<text text-anchor="middle" x="449.88" y="-1074.11" font-family="Times New Roman,serif" font-size="14.00">引用</text>
</g>
<!-- white_1 -->
<g id="node7" class="node">
<title>white_1</title>
<polygon fill="white" stroke="black" points="277.38,-211.41 112.12,-211.41 112.12,-175.41 283.38,-175.41 283.38,-205.41 277.38,-211.41"/>
<polyline fill="none" stroke="black" points="277.38,-211.41 277.38,-205.41"/>
<polyline fill="none" stroke="black" points="283.38,-205.41 277.38,-205.41"/>
<text text-anchor="middle" x="197.75" y="-187.24" font-family="Times New Roman,serif" font-size="14.00">实现失物的高效认领</text>
</g>
<!-- white_1&#45;&gt;lightblue_0 -->
<g id="edge3" class="edge">
<title>white_1&#45;&gt;lightblue_0</title>
<path fill="none" stroke="black" d="M283.78,-182.19C347.94,-178.79 433.61,-185.92 486.25,-237.16 533.78,-283.44 554.62,-490.94 560.86,-568.78"/>
<polygon fill="black" stroke="black" points="557.36,-568.91 561.62,-578.61 564.34,-568.37 557.36,-568.91"/>
<text text-anchor="middle" x="449.88" y="-238.11" font-family="Times New Roman,serif" font-size="14.00">引用</text>
</g>
<!-- white_2 -->
<g id="node8" class="node">
<title>white_2</title>
<polygon fill="white" stroke="black" points="277.38,-1185.41 112.12,-1185.41 112.12,-1149.41 283.38,-1149.41 283.38,-1179.41 277.38,-1185.41"/>
<polyline fill="none" stroke="black" points="277.38,-1185.41 277.38,-1179.41"/>
<polyline fill="none" stroke="black" points="283.38,-1179.41 277.38,-1179.41"/>
<text text-anchor="middle" x="197.75" y="-1161.24" font-family="Times New Roman,serif" font-size="14.00">保障系统的正常运行</text>
</g>
<!-- white_2&#45;&gt;lightblue_1 -->
<g id="edge4" class="edge">
<title>white_2&#45;&gt;lightblue_1</title>
<path fill="none" stroke="black" d="M283.69,-1167.41C353.46,-1167.41 450.13,-1167.41 509.52,-1167.41"/>
<polygon fill="black" stroke="black" points="509.37,-1170.91 519.37,-1167.41 509.37,-1163.91 509.37,-1170.91"/>
<text text-anchor="middle" x="449.88" y="-1168.36" font-family="Times New Roman,serif" font-size="14.00">引用</text>
</g>
<!-- white_3 -->
<g id="node9" class="node">
<title>white_3</title>
<polygon fill="white" stroke="black" points="303.25,-1131.41 86.25,-1131.41 86.25,-1095.41 309.25,-1095.41 309.25,-1125.41 303.25,-1131.41"/>
<polyline fill="none" stroke="black" points="303.25,-1131.41 303.25,-1125.41"/>
<polyline fill="none" stroke="black" points="309.25,-1125.41 303.25,-1125.41"/>
<text text-anchor="middle" x="197.75" y="-1107.24" font-family="Times New Roman,serif" font-size="14.00">保障信息的真实性、可靠性</text>
</g>
<!-- white_3&#45;&gt;lightblue_1 -->
<g id="edge5" class="edge">
<title>white_3&#45;&gt;lightblue_1</title>
<path fill="none" stroke="black" d="M309.42,-1124.3C363.03,-1130.31 428.21,-1138.69 486.25,-1149.16 495.84,-1150.89 506.03,-1153.07 515.74,-1155.32"/>
<polygon fill="black" stroke="black" points="514.85,-1158.7 525.39,-1157.61 516.47,-1151.89 514.85,-1158.7"/>
<text text-anchor="middle" x="449.88" y="-1150.11" font-family="Times New Roman,serif" font-size="14.00">引用</text>
</g>
<!-- white_4 -->
<g id="node10" class="node">
<title>white_4</title>
<polygon fill="white" stroke="black" points="337.75,-967.41 51.75,-967.41 51.75,-931.41 343.75,-931.41 343.75,-961.41 337.75,-967.41"/>
<polyline fill="none" stroke="black" points="337.75,-967.41 337.75,-961.41"/>
<polyline fill="none" stroke="black" points="343.75,-961.41 337.75,-961.41"/>
<text text-anchor="middle" x="197.75" y="-943.24" font-family="Times New Roman,serif" font-size="14.00">服务器在高并发情况下保持稳定运行</text>
</g>
<!-- white_4&#45;&gt;lightblue_0 -->
<g id="edge6" class="edge">
<title>white_4&#45;&gt;lightblue_0</title>
<path fill="none" stroke="black" d="M343.97,-957.16C395.13,-952.25 449.08,-937.18 486.25,-900.41 525.07,-862.01 550.39,-696.37 559.37,-628.05"/>
<polygon fill="black" stroke="black" points="562.81,-628.71 560.61,-618.35 555.87,-627.82 562.81,-628.71"/>
<text text-anchor="middle" x="449.88" y="-944.03" font-family="Times New Roman,serif" font-size="14.00">引用</text>
</g>
<!-- white_5 -->
<g id="node11" class="node">
<title>white_5</title>
<polygon fill="white" stroke="black" points="362.12,-913.41 27.38,-913.41 27.38,-877.41 368.12,-877.41 368.12,-907.41 362.12,-913.41"/>
<polyline fill="none" stroke="black" points="362.12,-913.41 362.12,-907.41"/>
<polyline fill="none" stroke="black" points="368.12,-907.41 362.12,-907.41"/>
<text text-anchor="middle" x="197.75" y="-890.36" font-family="Times New Roman,serif" font-size="14.00">系统接收物品登记请求响应时间不超过 3 秒</text>
</g>
<!-- white_5&#45;&gt;lightblue_0 -->
<g id="edge7" class="edge">
<title>white_5&#45;&gt;lightblue_0</title>
<path fill="none" stroke="black" d="M368.26,-894.36C411.82,-885.95 455.13,-869.12 486.25,-837.41 543.51,-779.09 558.06,-677.96 561.75,-628.04"/>
<polygon fill="black" stroke="black" points="565.23,-628.5 562.37,-618.3 558.24,-628.06 565.23,-628.5"/>
<text text-anchor="middle" x="449.88" y="-882.9" font-family="Times New Roman,serif" font-size="14.00">引用</text>
</g>
<!-- white_6 -->
<g id="node12" class="node">
<title>white_6</title>
<polygon fill="white" stroke="black" points="362.12,-859.41 27.38,-859.41 27.38,-823.41 368.12,-823.41 368.12,-853.41 362.12,-859.41"/>
<polyline fill="none" stroke="black" points="362.12,-859.41 362.12,-853.41"/>
<polyline fill="none" stroke="black" points="368.12,-853.41 362.12,-853.41"/>
<text text-anchor="middle" x="197.75" y="-836.36" font-family="Times New Roman,serif" font-size="14.00">系统接收失物发布请求响应时间不超过 3 秒</text>
</g>
<!-- white_6&#45;&gt;lightblue_0 -->
<g id="edge8" class="edge">
<title>white_6&#45;&gt;lightblue_0</title>
<path fill="none" stroke="black" d="M368.46,-835.16C411.64,-825.76 454.69,-808.41 486.25,-777.41 528.66,-735.76 549.02,-666.89 557.61,-627.84"/>
<polygon fill="black" stroke="black" points="561,-628.72 559.6,-618.22 554.15,-627.3 561,-628.72"/>
<text text-anchor="middle" x="449.88" y="-820.24" font-family="Times New Roman,serif" font-size="14.00">引用</text>
</g>
<!-- white_7 -->
<g id="node13" class="node">
<title>white_7</title>
<polygon fill="white" stroke="black" points="344.88,-805.41 44.62,-805.41 44.62,-769.41 350.88,-769.41 350.88,-799.41 344.88,-805.41"/>
<polyline fill="none" stroke="black" points="344.88,-805.41 344.88,-799.41"/>
<polyline fill="none" stroke="black" points="350.88,-799.41 344.88,-799.41"/>
<text text-anchor="middle" x="197.75" y="-782.36" font-family="Times New Roman,serif" font-size="14.00">系统信息匹配与推荐时间控制在 5 秒内</text>
</g>
<!-- white_7&#45;&gt;lightblue_0 -->
<g id="edge9" class="edge">
<title>white_7&#45;&gt;lightblue_0</title>
<path fill="none" stroke="black" d="M351.03,-778.37C398.9,-768.81 448.93,-750.99 486.25,-718.41 515.56,-692.83 537.83,-653.37 550.65,-626.75"/>
<polygon fill="black" stroke="black" points="553.71,-628.47 554.76,-617.92 547.36,-625.51 553.71,-628.47"/>
<text text-anchor="middle" x="449.88" y="-759.72" font-family="Times New Roman,serif" font-size="14.00">引用</text>
</g>
<!-- white_8 -->
<g id="node14" class="node">
<title>white_8</title>
<polygon fill="white" stroke="black" points="363.62,-751.41 25.88,-751.41 25.88,-715.41 369.62,-715.41 369.62,-745.41 363.62,-751.41"/>
<polyline fill="none" stroke="black" points="363.62,-751.41 363.62,-745.41"/>
<polyline fill="none" stroke="black" points="369.62,-745.41 363.62,-745.41"/>
<text text-anchor="middle" x="197.75" y="-727.24" font-family="Times New Roman,serif" font-size="14.00">服务器对用户个人信息和联系方式加密存储</text>
</g>
<!-- white_8&#45;&gt;lightblue_0 -->
<g id="edge10" class="edge">
<title>white_8&#45;&gt;lightblue_0</title>
<path fill="none" stroke="black" d="M363.87,-714.96C406.08,-705.03 449.79,-689.79 486.25,-666.41 505.29,-654.2 524.34,-637.36 538.7,-623.5"/>
<polygon fill="black" stroke="black" points="540.83,-626.31 545.49,-616.79 535.91,-621.32 540.83,-626.31"/>
<text text-anchor="middle" x="449.88" y="-701.52" font-family="Times New Roman,serif" font-size="14.00">引用</text>
</g>
<!-- white_9 -->
<g id="node15" class="node">
<title>white_9</title>
<polygon fill="white" stroke="black" points="303.25,-1077.41 86.25,-1077.41 86.25,-1041.41 309.25,-1041.41 309.25,-1071.41 303.25,-1077.41"/>
<polyline fill="none" stroke="black" points="303.25,-1077.41 303.25,-1071.41"/>
<polyline fill="none" stroke="black" points="309.25,-1071.41 303.25,-1071.41"/>
<text text-anchor="middle" x="197.75" y="-1053.24" font-family="Times New Roman,serif" font-size="14.00">管理员对系统进行安全防护</text>
</g>
<!-- white_9&#45;&gt;lightblue_1 -->
<g id="edge11" class="edge">
<title>white_9&#45;&gt;lightblue_1</title>
<path fill="none" stroke="black" d="M309.57,-1070.48C337.81,-1074.43 367.96,-1079.63 395.5,-1086.41 437.14,-1096.66 447.71,-1100.37 486.25,-1119.16 501.73,-1126.71 518,-1136.63 531.56,-1145.5"/>
<polygon fill="black" stroke="black" points="529.38,-1148.26 539.64,-1150.89 533.26,-1142.43 529.38,-1148.26"/>
<text text-anchor="middle" x="449.88" y="-1120.11" font-family="Times New Roman,serif" font-size="14.00">引用</text>
</g>
<!-- white_10 -->
<g id="node16" class="node">
<title>white_10</title>
<polygon fill="white" stroke="black" points="364,-697.41 25.5,-697.41 25.5,-661.41 370,-661.41 370,-691.41 364,-697.41"/>
<polyline fill="none" stroke="black" points="364,-697.41 364,-691.41"/>
<polyline fill="none" stroke="black" points="370,-691.41 364,-691.41"/>
<text text-anchor="middle" x="197.75" y="-674.36" font-family="Times New Roman,serif" font-size="14.00">服务器保证系统每周 7 天、每天 24 小时可用</text>
</g>
<!-- white_10&#45;&gt;lightblue_0 -->
<g id="edge12" class="edge">
<title>white_10&#45;&gt;lightblue_0</title>
<path fill="none" stroke="black" d="M348.69,-660.94C364.54,-658.36 380.39,-655.52 395.5,-652.41 436.48,-644 446.47,-640.38 486.25,-627.41 496.6,-624.04 507.62,-620.09 517.97,-616.22"/>
<polygon fill="black" stroke="black" points="518.95,-619.59 527.06,-612.77 516.47,-613.05 518.95,-619.59"/>
<text text-anchor="middle" x="449.88" y="-649.2" font-family="Times New Roman,serif" font-size="14.00">引用</text>
</g>
<!-- white_11 -->
<g id="node17" class="node">
<title>white_11</title>
<polygon fill="white" stroke="black" points="310.38,-643.41 79.12,-643.41 79.12,-607.41 316.38,-607.41 316.38,-637.41 310.38,-643.41"/>
<polyline fill="none" stroke="black" points="310.38,-643.41 310.38,-637.41"/>
<polyline fill="none" stroke="black" points="316.38,-637.41 310.38,-637.41"/>
<text text-anchor="middle" x="197.75" y="-620.36" font-family="Times New Roman,serif" font-size="14.00">系统故障恢复时间在 1 小时内</text>
</g>
<!-- white_11&#45;&gt;lightblue_0 -->
<g id="edge13" class="edge">
<title>white_11&#45;&gt;lightblue_0</title>
<path fill="none" stroke="black" d="M316.76,-616.67C377.48,-612.16 449.11,-606.86 499.41,-603.13"/>
<polygon fill="black" stroke="black" points="499.54,-606.63 509.25,-602.4 499.02,-599.65 499.54,-606.63"/>
<text text-anchor="middle" x="449.88" y="-610.44" font-family="Times New Roman,serif" font-size="14.00">引用</text>
</g>
<!-- white_12 -->
<g id="node18" class="node">
<title>white_12</title>
<polygon fill="white" stroke="black" points="363.62,-589.41 25.88,-589.41 25.88,-553.41 369.62,-553.41 369.62,-583.41 363.62,-589.41"/>
<polyline fill="none" stroke="black" points="363.62,-589.41 363.62,-583.41"/>
<polyline fill="none" stroke="black" points="369.62,-583.41 363.62,-583.41"/>
<text text-anchor="middle" x="197.75" y="-565.24" font-family="Times New Roman,serif" font-size="14.00">系统对普通用户错误输入给出明确错误提示</text>
</g>
<!-- white_12&#45;&gt;lightblue_0 -->
<g id="edge14" class="edge">
<title>white_12&#45;&gt;lightblue_0</title>
<path fill="none" stroke="black" d="M370.01,-577.19C408.32,-579.32 448.72,-582.22 486.25,-586.16 492.2,-586.79 498.4,-587.57 504.58,-588.42"/>
<polygon fill="black" stroke="black" points="503.71,-591.83 514.12,-589.82 504.73,-584.91 503.71,-591.83"/>
<text text-anchor="middle" x="449.88" y="-587.11" font-family="Times New Roman,serif" font-size="14.00">引用</text>
</g>
<!-- white_13 -->
<g id="node19" class="node">
<title>white_13</title>
<polygon fill="white" stroke="black" points="320.5,-535.41 69,-535.41 69,-499.41 326.5,-499.41 326.5,-529.41 320.5,-535.41"/>
<polyline fill="none" stroke="black" points="320.5,-535.41 320.5,-529.41"/>
<polyline fill="none" stroke="black" points="326.5,-529.41 320.5,-529.41"/>
<text text-anchor="middle" x="197.75" y="-511.24" font-family="Times New Roman,serif" font-size="14.00">服务器具备数据备份和恢复功能</text>
</g>
<!-- white_13&#45;&gt;lightblue_0 -->
<g id="edge15" class="edge">
<title>white_13&#45;&gt;lightblue_0</title>
<path fill="none" stroke="black" d="M326.8,-528.3C377.34,-534.92 435.38,-545.46 486.25,-562.16 499.03,-566.36 512.45,-572.17 524.43,-577.91"/>
<polygon fill="black" stroke="black" points="522.67,-580.94 533.18,-582.23 525.76,-574.66 522.67,-580.94"/>
<text text-anchor="middle" x="449.88" y="-563.11" font-family="Times New Roman,serif" font-size="14.00">引用</text>
</g>
<!-- white_14 -->
<g id="node20" class="node">
<title>white_14</title>
<polygon fill="white" stroke="black" points="346.38,-481.41 43.12,-481.41 43.12,-445.41 352.38,-445.41 352.38,-475.41 346.38,-481.41"/>
<polyline fill="none" stroke="black" points="346.38,-481.41 346.38,-475.41"/>
<polyline fill="none" stroke="black" points="352.38,-475.41 346.38,-475.41"/>
<text text-anchor="middle" x="197.75" y="-457.24" font-family="Times New Roman,serif" font-size="14.00">系统界面简洁明了、操作流程简单易懂</text>
</g>
<!-- white_14&#45;&gt;lightblue_0 -->
<g id="edge16" class="edge">
<title>white_14&#45;&gt;lightblue_0</title>
<path fill="none" stroke="black" d="M352.67,-476.06C398.26,-485.03 446.55,-500.06 486.25,-525.16 506.87,-538.2 526.7,-557.36 541.04,-572.81"/>
<polygon fill="black" stroke="black" points="538.09,-574.77 547.39,-579.83 543.28,-570.07 538.09,-574.77"/>
<text text-anchor="middle" x="449.88" y="-526.11" font-family="Times New Roman,serif" font-size="14.00">引用</text>
</g>
<!-- white_15 -->
<g id="node21" class="node">
<title>white_15</title>
<polygon fill="white" stroke="black" points="355,-427.41 34.5,-427.41 34.5,-391.41 361,-391.41 361,-421.41 355,-427.41"/>
<polyline fill="none" stroke="black" points="355,-427.41 355,-421.41"/>
<polyline fill="none" stroke="black" points="361,-421.41 355,-421.41"/>
<text text-anchor="middle" x="197.75" y="-403.24" font-family="Times New Roman,serif" font-size="14.00">为普通用户提供必要帮助文档和操作指南</text>
</g>
<!-- white_15&#45;&gt;lightblue_0 -->
<g id="edge17" class="edge">
<title>white_15&#45;&gt;lightblue_0</title>
<path fill="none" stroke="black" d="M361.17,-418.26C405.78,-427.61 451.4,-444.46 486.25,-474.16 517.08,-500.44 539.33,-542.32 551.69,-570.09"/>
<polygon fill="black" stroke="black" points="548.33,-571.14 555.49,-578.94 554.76,-568.37 548.33,-571.14"/>
<text text-anchor="middle" x="449.88" y="-475.11" font-family="Times New Roman,serif" font-size="14.00">引用</text>
</g>
<!-- white_16 -->
<g id="node22" class="node">
<title>white_16</title>
<polygon fill="white" stroke="black" points="389.5,-1347.41 0,-1347.41 0,-1311.41 395.5,-1311.41 395.5,-1341.41 389.5,-1347.41"/>
<polyline fill="none" stroke="black" points="389.5,-1347.41 389.5,-1341.41"/>
<polyline fill="none" stroke="black" points="395.5,-1341.41 389.5,-1341.41"/>
<text text-anchor="middle" x="197.75" y="-1323.24" font-family="Times New Roman,serif" font-size="14.00">管理员确保系统开发和运行符合相关法律法规要求</text>
</g>
<!-- white_16&#45;&gt;lightblue_1 -->
<g id="edge18" class="edge">
<title>white_16&#45;&gt;lightblue_1</title>
<path fill="none" stroke="black" d="M379.81,-1310.96C417.7,-1300.7 455.44,-1285.09 486.25,-1261.41 510.51,-1242.77 531.95,-1215.02 545.95,-1194.51"/>
<polygon fill="black" stroke="black" points="548.76,-1196.61 551.38,-1186.35 542.93,-1192.74 548.76,-1196.61"/>
<text text-anchor="middle" x="449.88" y="-1300.16" font-family="Times New Roman,serif" font-size="14.00">引用</text>
</g>
<!-- white_17 -->
<g id="node23" class="node">
<title>white_17</title>
<polygon fill="white" stroke="black" points="346.38,-373.41 43.12,-373.41 43.12,-337.41 352.38,-337.41 352.38,-367.41 346.38,-373.41"/>
<polyline fill="none" stroke="black" points="346.38,-373.41 346.38,-367.41"/>
<polyline fill="none" stroke="black" points="352.38,-367.41 346.38,-367.41"/>
<text text-anchor="middle" x="197.75" y="-349.24" font-family="Times New Roman,serif" font-size="14.00">系统界面设计美观大方、色彩搭配协调</text>
</g>
<!-- white_17&#45;&gt;lightblue_0 -->
<g id="edge19" class="edge">
<title>white_17&#45;&gt;lightblue_0</title>
<path fill="none" stroke="black" d="M352.73,-357.04C400.85,-365 450.61,-382.01 486.25,-416.16 530.15,-458.23 550.04,-529.32 558.13,-569.14"/>
<polygon fill="black" stroke="black" points="554.64,-569.54 559.95,-578.7 561.52,-568.23 554.64,-569.54"/>
<text text-anchor="middle" x="449.88" y="-417.11" font-family="Times New Roman,serif" font-size="14.00">引用</text>
</g>
<!-- white_18 -->
<g id="node24" class="node">
<title>white_18</title>
<polygon fill="white" stroke="black" points="355,-1293.41 34.5,-1293.41 34.5,-1257.41 361,-1257.41 361,-1287.41 355,-1293.41"/>
<polyline fill="none" stroke="black" points="355,-1293.41 355,-1287.41"/>
<polyline fill="none" stroke="black" points="361,-1287.41 355,-1287.41"/>
<text text-anchor="middle" x="197.75" y="-1269.24" font-family="Times New Roman,serif" font-size="14.00">管理员保证系统代码具有良好结构和注释</text>
</g>
<!-- white_18&#45;&gt;lightblue_1 -->
<g id="edge20" class="edge">
<title>white_18&#45;&gt;lightblue_1</title>
<path fill="none" stroke="black" d="M355.85,-1256.92C369.33,-1254.4 382.7,-1251.58 395.5,-1248.41 437.16,-1238.1 447.68,-1234.23 486.25,-1215.41 501.71,-1207.87 517.98,-1198.01 531.54,-1189.18"/>
<polygon fill="black" stroke="black" points="533.22,-1192.27 539.62,-1183.83 529.35,-1186.43 533.22,-1192.27"/>
<text text-anchor="middle" x="449.88" y="-1244.3" font-family="Times New Roman,serif" font-size="14.00">引用</text>
</g>
<!-- white_19 -->
<g id="node25" class="node">
<title>white_19</title>
<polygon fill="white" stroke="black" points="372.25,-319.41 17.25,-319.41 17.25,-283.41 378.25,-283.41 378.25,-313.41 372.25,-319.41"/>
<polyline fill="none" stroke="black" points="372.25,-319.41 372.25,-313.41"/>
<polyline fill="none" stroke="black" points="378.25,-313.41 372.25,-313.41"/>
<text text-anchor="middle" x="197.75" y="-295.24" font-family="Times New Roman,serif" font-size="14.00">系统能在不同操作系统和手机设备上正常运行</text>
</g>
<!-- white_19&#45;&gt;lightblue_0 -->
<g id="edge21" class="edge">
<title>white_19&#45;&gt;lightblue_0</title>
<path fill="none" stroke="black" d="M378.39,-303.39C418.36,-312.09 457.38,-328.33 486.25,-357.16 544.71,-415.56 558.7,-518.29 562.01,-568.75"/>
<polygon fill="black" stroke="black" points="558.5,-568.8 562.54,-578.6 565.49,-568.42 558.5,-568.8"/>
<text text-anchor="middle" x="449.88" y="-358.11" font-family="Times New Roman,serif" font-size="14.00">引用</text>
</g>
<!-- white_20 -->
<g id="node26" class="node">
<title>white_20</title>
<polygon fill="white" stroke="black" points="363.62,-265.41 25.88,-265.41 25.88,-229.41 369.62,-229.41 369.62,-259.41 363.62,-265.41"/>
<polyline fill="none" stroke="black" points="363.62,-265.41 363.62,-259.41"/>
<polyline fill="none" stroke="black" points="369.62,-259.41 363.62,-259.41"/>
<text text-anchor="middle" x="197.75" y="-241.24" font-family="Times New Roman,serif" font-size="14.00">系统操作方便快捷、减少普通用户操作步骤</text>
</g>
<!-- white_20&#45;&gt;lightblue_0 -->
<g id="edge22" class="edge">
<title>white_20&#45;&gt;lightblue_0</title>
<path fill="none" stroke="black" d="M369.91,-242.45C412.72,-249.47 455.22,-264.84 486.25,-295.16 525.55,-333.56 550.67,-500.72 559.48,-569.1"/>
<polygon fill="black" stroke="black" points="555.98,-569.31 560.7,-578.8 562.92,-568.44 555.98,-569.31"/>
<text text-anchor="middle" x="449.88" y="-296.11" font-family="Times New Roman,serif" font-size="14.00">引用</text>
</g>
<!-- white_21 -->
<g id="node27" class="node">
<title>white_21</title>
<polygon fill="white" stroke="black" points="320.5,-1239.41 69,-1239.41 69,-1203.41 326.5,-1203.41 326.5,-1233.41 320.5,-1239.41"/>
<polyline fill="none" stroke="black" points="320.5,-1239.41 320.5,-1233.41"/>
<polyline fill="none" stroke="black" points="326.5,-1233.41 320.5,-1233.41"/>
<text text-anchor="middle" x="197.75" y="-1215.24" font-family="Times New Roman,serif" font-size="14.00">管理员确保系统具备良好扩展性</text>
</g>
<!-- white_21&#45;&gt;lightblue_1 -->
<g id="edge23" class="edge">
<title>white_21&#45;&gt;lightblue_1</title>
<path fill="none" stroke="black" d="M326.92,-1208.3C376.83,-1202.43 434.39,-1194.72 486.25,-1185.41 495.74,-1183.71 505.82,-1181.58 515.44,-1179.39"/>
<polygon fill="black" stroke="black" points="516.05,-1182.84 524.99,-1177.16 514.46,-1176.03 516.05,-1182.84"/>
<text text-anchor="middle" x="449.88" y="-1197.7" font-family="Times New Roman,serif" font-size="14.00">引用</text>
</g>
<!-- lightgrey_0&#45;&gt;orange_0 -->
<g id="edge25" class="edge">
<title>lightgrey_0&#45;&gt;orange_0</title>
<path fill="none" stroke="black" d="M1347.8,-276.35C1243.93,-290.72 1025.19,-307.1 870,-222.41 845.94,-209.28 825.29,-185.78 811.49,-167.13"/>
<polygon fill="black" stroke="black" points="814.44,-165.24 805.79,-159.13 808.74,-169.3 814.44,-165.24"/>
<text text-anchor="middle" x="1100.12" y="-290.01" font-family="Times New Roman,serif" font-size="14.00">发送/接收</text>
</g>
<!-- lightgrey_1&#45;&gt;orange_0 -->
<g id="edge27" class="edge">
<title>lightgrey_1&#45;&gt;orange_0</title>
<path fill="none" stroke="black" d="M1385.5,-194.9C1370.96,-206.13 1350.74,-219.43 1330.25,-225.41 1251.42,-248.43 1042.2,-230.84 960.75,-220.41 919.58,-215.14 907.43,-216.34 870,-198.41 852.22,-189.9 834.62,-176.8 820.77,-165.1"/>
<polygon fill="black" stroke="black" points="823.22,-162.6 813.38,-158.68 818.63,-167.88 823.22,-162.6"/>
<text text-anchor="middle" x="1100.12" y="-238.24" font-family="Times New Roman,serif" font-size="14.00">发送/接收</text>
</g>
<!-- lightgrey_2&#45;&gt;orange_0 -->
<g id="edge29" class="edge">
<title>lightgrey_2&#45;&gt;orange_0</title>
<path fill="none" stroke="black" d="M1386.57,-93.01C1372.02,-81.18 1351.36,-66.87 1330.25,-60.41 1183.19,-15.44 1031.98,-44.1 960.75,-58.41 912.53,-68.1 862.42,-94.91 829.73,-115.06"/>
<polygon fill="black" stroke="black" points="828.05,-111.98 821.44,-120.26 831.77,-117.91 828.05,-111.98"/>
<text text-anchor="middle" x="1100.12" y="-44.62" font-family="Times New Roman,serif" font-size="14.00">发送/接收</text>
</g>
<!-- lightgrey_3&#45;&gt;khaki_0 -->
<g id="edge35" class="edge">
<title>lightgrey_3&#45;&gt;khaki_0</title>
<path fill="none" stroke="black" d="M1046.16,-183.46C1072.27,-177.06 1106.5,-168.3 1136.5,-159.41 1138.74,-158.75 1141.03,-158.05 1143.34,-157.34"/>
<polygon fill="black" stroke="black" points="1144.28,-160.72 1152.75,-154.35 1142.15,-154.04 1144.28,-160.72"/>
<text text-anchor="middle" x="1100.12" y="-182.03" font-family="Times New Roman,serif" font-size="14.00">发送/接收</text>
</g>
<!-- lightgrey_4&#45;&gt;khaki_0 -->
<g id="edge37" class="edge">
<title>lightgrey_4&#45;&gt;khaki_0</title>
<path fill="none" stroke="black" d="M1045.86,-139.41C1074.28,-139.41 1112.19,-139.41 1142.8,-139.41"/>
<polygon fill="black" stroke="black" points="1142.63,-142.91 1152.63,-139.41 1142.63,-135.91 1142.63,-142.91"/>
<text text-anchor="middle" x="1100.12" y="-142.61" font-family="Times New Roman,serif" font-size="14.00">发送/接收</text>
</g>
<!-- lightgrey_5&#45;&gt;khaki_0 -->
<g id="edge39" class="edge">
<title>lightgrey_5&#45;&gt;khaki_0</title>
<path fill="none" stroke="black" d="M1046.19,-95.09C1072.32,-101.35 1106.54,-109.97 1136.5,-118.91 1138.75,-119.58 1141.04,-120.29 1143.35,-121.01"/>
<polygon fill="black" stroke="black" points="1142.18,-124.31 1152.77,-124.06 1144.33,-117.65 1142.18,-124.31"/>
<text text-anchor="middle" x="1100.12" y="-122.11" font-family="Times New Roman,serif" font-size="14.00">发送/接收</text>
</g>
<!-- lightgrey_6 -->
<g id="node34" class="node">
<title>lightgrey_6</title>
<polygon fill="lightgrey" stroke="black" points="266.12,-1401.41 129.38,-1401.41 129.38,-1365.41 266.12,-1365.41 266.12,-1401.41"/>
<text text-anchor="middle" x="197.75" y="-1377.24" font-family="Times New Roman,serif" font-size="14.00">私信或留言内容</text>
</g>
<!-- lightgrey_7&#45;&gt;orange_0 -->
<g id="edge31" class="edge">
<title>lightgrey_7&#45;&gt;orange_0</title>
<path fill="none" stroke="black" d="M1347.89,-21.76C1243.69,-1.06 1023.84,27.34 870,-59.41 846.87,-72.46 826.38,-94.67 812.41,-112.39"/>
<polygon fill="black" stroke="black" points="809.91,-109.89 806.63,-119.97 815.47,-114.14 809.91,-109.89"/>
<text text-anchor="middle" x="1100.12" y="-6.61" font-family="Times New Roman,serif" font-size="14.00">发送/接收</text>
</g>
<!-- lightgrey_8&#45;&gt;orange_0 -->
<g id="edge33" class="edge">
<title>lightgrey_8&#45;&gt;orange_0</title>
<path fill="none" stroke="black" d="M624.15,-139.41C653.77,-139.41 689.83,-139.41 720.87,-139.41"/>
<polygon fill="black" stroke="black" points="720.54,-142.91 730.54,-139.41 720.54,-135.91 720.54,-142.91"/>
<text text-anchor="middle" x="678.12" y="-142.61" font-family="Times New Roman,serif" font-size="14.00">发送/接收</text>
</g>
</g>
</svg>
