<svg xmlns="http://www.w3.org/2000/svg" xmlns:xlink="http://www.w3.org/1999/xlink" contentStyleType="text/css" data-diagram-type="DESCRIPTION" height="633px" preserveAspectRatio="none" style="width:577px;height:633px;background:#FFFFFF;" version="1.1" viewBox="0 0 577 633" width="577px" zoomAndPan="magnify"><title>&#22833;&#29289;&#25307;&#39046;&#31995;&#32479;&#29992;&#20363;&#22270;</title><defs/><g><text fill="#000000" font-family="sans-serif" font-size="14" font-weight="bold" lengthAdjust="spacing" textLength="129.9375" x="216.5313" y="24.5332">&#22833;&#29289;&#25307;&#39046;&#31995;&#32479;&#29992;&#20363;&#22270;</text><!--cluster ??????--><g class="cluster" data-entity="&#22833;&#29289;&#25307;&#39046;&#31995;&#32479;" data-source-line="8" data-uid="ent0004" id="cluster_&#22833;&#29289;&#25307;&#39046;&#31995;&#32479;"><rect fill="none" height="446" rx="2.5" ry="2.5" style="stroke:#181818;stroke-width:1;" width="462" x="109" y="99.6094"/><text fill="#000000" font-family="sans-serif" font-size="14" font-weight="bold" lengthAdjust="spacing" textLength="86.625" x="296.6875" y="116.1426">&#22833;&#29289;&#25307;&#39046;&#31995;&#32479;</text></g><g class="entity" data-entity="register" data-source-line="9" data-uid="ent0005" id="entity_register"><ellipse cx="214.8032" cy="217.618" fill="#F1F1F1" rx="51.3032" ry="15.5087" style="stroke:#181818;stroke-width:0.5;"/><text fill="#000000" font-family="sans-serif" font-size="14" lengthAdjust="spacing" textLength="56" x="183.8032" y="222.1347">&#29289;&#21697;&#30331;&#35760;</text></g><g class="entity" data-entity="publish" data-source-line="10" data-uid="ent0006" id="entity_publish"><ellipse cx="214.8032" cy="151.618" fill="#F1F1F1" rx="51.3032" ry="15.5087" style="stroke:#181818;stroke-width:0.5;"/><text fill="#000000" font-family="sans-serif" font-size="14" lengthAdjust="spacing" textLength="56" x="183.8032" y="156.1347">&#22833;&#29289;&#21457;&#24067;</text></g><g class="entity" data-entity="match" data-source-line="11" data-uid="ent0007" id="entity_match"><ellipse cx="481.7427" cy="477.7579" fill="#F1F1F1" rx="73.7427" ry="17.1485" style="stroke:#181818;stroke-width:0.5;"/><text fill="#000000" font-family="sans-serif" font-size="14" lengthAdjust="spacing" textLength="98" x="429.7427" y="482.2745">&#20449;&#24687;&#21305;&#37197;&#19982;&#25512;&#33616;</text></g><g class="entity" data-entity="claim" data-source-line="12" data-uid="ent0008" id="entity_claim"><ellipse cx="215.2427" cy="285.7579" fill="#F1F1F1" rx="73.7427" ry="17.1485" style="stroke:#181818;stroke-width:0.5;"/><text fill="#000000" font-family="sans-serif" font-size="14" lengthAdjust="spacing" textLength="98" x="163.2427" y="290.2745">&#32852;&#31995;&#19982;&#35748;&#39046;&#31649;&#29702;</text></g><g class="entity" data-entity="manage" data-source-line="13" data-uid="ent0009" id="entity_manage"><ellipse cx="214.8478" cy="357.4789" fill="#F1F1F1" rx="84.8478" ry="19.3696" style="stroke:#181818;stroke-width:0.5;"/><text fill="#000000" font-family="sans-serif" font-size="14" lengthAdjust="spacing" textLength="126" x="151.8478" y="361.2075">&#31649;&#29702;&#21518;&#21488;&#19982;&#23457;&#26680;&#21151;&#33021;</text></g><g class="entity" data-entity="upload" data-source-line="14" data-uid="ent0010" id="entity_upload"><ellipse cx="481.2688" cy="178.7631" fill="#F1F1F1" rx="68.7688" ry="16.1538" style="stroke:#181818;stroke-width:0.5;"/><text fill="#000000" font-family="sans-serif" font-size="14" lengthAdjust="spacing" textLength="84" x="436.2688" y="183.2797">&#19978;&#20256;&#29289;&#21697;&#22270;&#29255;</text></g><g class="entity" data-entity="info" data-source-line="15" data-uid="ent0011" id="entity_info"><ellipse cx="481.2688" cy="269.7631" fill="#F1F1F1" rx="68.7688" ry="16.1538" style="stroke:#181818;stroke-width:0.5;"/><text fill="#000000" font-family="sans-serif" font-size="14" lengthAdjust="spacing" textLength="84" x="436.2688" y="274.2797">&#22635;&#20889;&#22522;&#26412;&#20449;&#24687;</text></g><g class="entity" data-entity="auth" data-source-line="16" data-uid="ent0012" id="entity_auth"><ellipse cx="481.2688" cy="385.7631" fill="#F1F1F1" rx="68.7688" ry="16.1538" style="stroke:#181818;stroke-width:0.5;"/><text fill="#000000" font-family="sans-serif" font-size="14" lengthAdjust="spacing" textLength="84" x="436.2688" y="390.2797">&#36523;&#20221;&#39564;&#35777;&#27969;&#31243;</text></g><g class="entity" data-entity="smart_match" data-source-line="17" data-uid="ent0013" id="entity_smart_match"><ellipse cx="215.1563" cy="508.5406" fill="#F1F1F1" rx="90.1563" ry="20.4313" style="stroke:#181818;stroke-width:0.5;"/><text fill="#000000" font-family="sans-serif" font-size="14" lengthAdjust="spacing" textLength="138.4414" x="145.9356" y="512.2691">&#20449;&#24687;&#21305;&#37197;&#19982;&#25512;&#33616; - &#26234;&#33021;</text></g><g class="entity" data-entity="manual_match" data-source-line="18" data-uid="ent0014" id="entity_manual_match"><ellipse cx="215.1563" cy="432.5406" fill="#F1F1F1" rx="90.1563" ry="20.4313" style="stroke:#181818;stroke-width:0.5;"/><text fill="#000000" font-family="sans-serif" font-size="14" lengthAdjust="spacing" textLength="138.4414" x="145.9356" y="436.2691">&#20449;&#24687;&#21305;&#37197;&#19982;&#25512;&#33616; - &#20154;&#24037;</text></g><!--entity user--><g class="entity" data-entity="user" data-source-line="5" data-uid="ent0002" id="entity_user"><ellipse cx="34" cy="147.1094" fill="#F1F1F1" rx="8" ry="8" style="stroke:#181818;stroke-width:0.5;"/><path d="M34,155.1094 L34,182.1094 M21,163.1094 L47,163.1094 M34,182.1094 L21,197.1094 M34,182.1094 L47,197.1094" fill="none" style="stroke:#181818;stroke-width:0.5;"/><text fill="#000000" font-family="sans-serif" font-size="14" lengthAdjust="spacing" textLength="56" x="6" y="213.1426">&#26222;&#36890;&#29992;&#25143;</text></g><!--entity admin--><g class="entity" data-entity="admin" data-source-line="6" data-uid="ent0003" id="entity_admin"><ellipse cx="34" cy="327.1094" fill="#F1F1F1" rx="8" ry="8" style="stroke:#181818;stroke-width:0.5;"/><path d="M34,335.1094 L34,362.1094 M21,343.1094 L47,343.1094 M34,362.1094 L21,377.1094 M34,362.1094 L47,377.1094" fill="none" style="stroke:#181818;stroke-width:0.5;"/><text fill="#000000" font-family="sans-serif" font-size="14" lengthAdjust="spacing" textLength="42" x="13" y="393.1426">&#31649;&#29702;&#21592;</text></g><!--link user to register--><g class="link" data-entity-1="user" data-entity-2="register" data-source-line="21" data-uid="lnk15" id="link_user_register"><path d="M62.19,183.6894 C91.72,190.2894 133.3744,199.5909 167.3844,207.1909" fill="none" id="user-to-register" style="stroke:#181818;stroke-width:1;"/><polygon fill="#181818" points="173.24,208.4994,165.329,202.6329,168.3604,207.409,163.5843,210.4403,173.24,208.4994" style="stroke:#181818;stroke-width:1;"/></g><!--link user to publish--><g class="link" data-entity-1="user" data-entity-2="publish" data-source-line="22" data-uid="lnk16" id="link_user_publish"><path d="M62.19,173.6594 C90.35,169.5694 128.9322,163.961 162.4922,159.091" fill="none" id="user-to-publish" style="stroke:#181818;stroke-width:1;"/><polygon fill="#181818" points="168.43,158.2294,158.9489,155.5633,163.4818,158.9474,160.0977,163.4804,168.43,158.2294" style="stroke:#181818;stroke-width:1;"/></g><!--link user to match--><g class="link" data-entity-1="user" data-entity-2="match" data-source-line="23" data-uid="lnk17" id="link_user_match"><path d="M62.02,145.3194 C72.9,134.6994 86.35,124.1994 101,118.6094 C216.31,74.5794 298.01,44.6094 378,138.6094 C418.56,186.2694 378.15,363.6094 408,418.6094 C417.91,436.8694 431.0004,448.3478 446.6504,458.5278" fill="none" id="user-to-match" style="stroke:#181818;stroke-width:1;"/><polygon fill="#181818" points="451.68,461.7994,446.3167,453.5389,447.4887,459.073,441.9546,460.245,451.68,461.7994" style="stroke:#181818;stroke-width:1;"/></g><!--link user to claim--><g class="link" data-entity-1="user" data-entity-2="claim" data-source-line="24" data-uid="lnk18" id="link_user_claim"><path d="M62.29,215.2794 C73.11,228.0094 86.45,241.3294 101,250.6094 C118.23,261.5994 133.3519,267.7226 152.4719,273.0726" fill="none" id="user-to-claim" style="stroke:#181818;stroke-width:1;"/><polygon fill="#181818" points="158.25,274.6894,150.6607,268.4122,153.4349,273.3421,148.5051,276.1163,158.25,274.6894" style="stroke:#181818;stroke-width:1;"/></g><!--link admin to match--><g class="link" data-entity-1="admin" data-entity-2="match" data-source-line="25" data-uid="lnk19" id="link_admin_match"><path d="M36.12,396.8694 C39.76,441.5494 53.25,512.7094 101,546.6094 C213.48,626.4694 385.5444,536.2483 450.4744,496.7383" fill="none" id="admin-to-match" style="stroke:#181818;stroke-width:1;"/><polygon fill="#181818" points="455.6,493.6194,445.8322,494.8807,451.3286,496.2185,449.9909,501.7149,455.6,493.6194" style="stroke:#181818;stroke-width:1;"/></g><!--link admin to claim--><g class="link" data-entity-1="admin" data-entity-2="claim" data-source-line="26" data-uid="lnk20" id="link_admin_claim"><path d="M55.24,344.7894 C68.02,337.0794 85.07,327.4494 101,320.6094 C121.57,311.7794 139.348,305.7925 159.598,299.9125" fill="none" id="admin-to-claim" style="stroke:#181818;stroke-width:1;"/><polygon fill="#181818" points="165.36,298.2394,155.6016,296.9077,160.5583,299.6336,157.8324,304.5904,165.36,298.2394" style="stroke:#181818;stroke-width:1;"/></g><!--link admin to manage--><g class="link" data-entity-1="admin" data-entity-2="manage" data-source-line="27" data-uid="lnk21" id="link_admin_manage"><path d="M55.19,357.6094 C73.56,357.6094 95.99,357.6094 123.74,357.6094" fill="none" id="admin-to-manage" style="stroke:#181818;stroke-width:1;"/><polygon fill="#181818" points="129.74,357.6094,120.74,353.6094,124.74,357.6094,120.74,361.6094,129.74,357.6094" style="stroke:#181818;stroke-width:1;"/></g><!--link register to upload--><g class="link" data-entity-1="register" data-entity-2="upload" data-source-line="29" data-uid="lnk22" id="link_register_upload"><path d="M252.07,228.4394 C268.66,234.0494 288.31,241.6294 305,250.6094 C319.56,258.4494 319.29,267.4694 335,272.6094 C353.16,278.5594 360.75,280.8294 378,272.6094 C397.11,263.4994 392.92,250.4694 408,235.6094 C423.74,220.0994 438.7267,208.2772 453.6667,197.4172" fill="none" id="register-to-upload" style="stroke:#181818;stroke-width:1;stroke-dasharray:7.0,7.0;"/><polygon fill="#181818" points="458.52,193.8894,448.8882,195.9457,454.4756,196.8293,453.592,202.4167,458.52,193.8894" style="stroke:#181818;stroke-width:1;"/><text fill="#000000" font-family="sans-serif" font-size="13" lengthAdjust="spacing" textLength="41.1963" x="336" y="269.1045">include</text></g><!--link publish to upload--><g class="link" data-entity-1="publish" data-entity-2="upload" data-source-line="30" data-uid="lnk23" id="link_publish_upload"><path d="M263.9,156.4994 C307.07,160.9094 364.861,166.8107 412.031,171.6207" fill="none" id="publish-to-upload" style="stroke:#181818;stroke-width:1;stroke-dasharray:7.0,7.0;"/><polygon fill="#181818" points="418,172.2294,409.4522,167.337,413.0258,171.7221,408.6406,175.2957,418,172.2294" style="stroke:#181818;stroke-width:1;"/><text fill="#000000" font-family="sans-serif" font-size="13" lengthAdjust="spacing" textLength="41.1963" x="336" y="161.1045">include</text></g><!--link register to info--><g class="link" data-entity-1="register" data-entity-2="info" data-source-line="31" data-uid="lnk24" id="link_register_info"><path d="M257.76,226.4594 C273.88,231.4794 291.62,239.1294 305,250.6094 C325.83,268.4894 311.34,290.6894 335,304.6094 C374.3,327.7294 422.9593,305.7934 452.8993,287.7734" fill="none" id="register-to-info" style="stroke:#181818;stroke-width:1;stroke-dasharray:7.0,7.0;"/><polygon fill="#181818" points="458.04,284.6794,448.2662,285.8933,453.7561,287.2577,452.3916,292.7476,458.04,284.6794" style="stroke:#181818;stroke-width:1;"/><text fill="#000000" font-family="sans-serif" font-size="13" lengthAdjust="spacing" textLength="41.1963" x="336" y="301.1045">include</text></g><!--link publish to info--><g class="link" data-entity-1="publish" data-entity-2="info" data-source-line="32" data-uid="lnk25" id="link_publish_info"><path d="M249.69,163.2394 C266.46,169.2494 286.96,176.9194 305,184.6094 C358.1,207.2494 412.9739,234.6959 447.2839,252.3359" fill="none" id="publish-to-info" style="stroke:#181818;stroke-width:1;stroke-dasharray:7.0,7.0;"/><polygon fill="#181818" points="452.62,255.0794,446.4449,247.4068,448.1733,252.7932,442.787,254.5216,452.62,255.0794" style="stroke:#181818;stroke-width:1;"/><text fill="#000000" font-family="sans-serif" font-size="13" lengthAdjust="spacing" textLength="41.1963" x="336" y="197.1045">include</text></g><!--link claim to auth--><g class="link" data-entity-1="claim" data-entity-2="auth" data-source-line="34" data-uid="lnk26" id="link_claim_auth"><path d="M257.13,299.6894 C272.47,305.4794 289.84,312.6894 305,320.6094 C319.2,328.0294 320.53,333.7294 335,340.6094 C366.04,355.3794 397.2779,365.2211 426.2079,372.8411" fill="none" id="claim-to-auth" style="stroke:#181818;stroke-width:1;stroke-dasharray:7.0,7.0;"/><polygon fill="#181818" points="432.01,374.3694,424.3257,368.2089,427.1749,373.0958,422.288,375.9451,432.01,374.3694" style="stroke:#181818;stroke-width:1;"/><text fill="#000000" font-family="sans-serif" font-size="13" lengthAdjust="spacing" textLength="39.0317" x="337" y="337.1045">extend</text></g><!--link smart_match to match--><g class="link" data-entity-1="smart_match" data-entity-2="match" data-source-line="36" data-uid="lnk27" id="link_smart_match_match"><path d="M295.36,499.3094 C333.71,494.8194 361.2722,491.5837 397.5522,487.3337" fill="none" id="smart_match-to-match" style="stroke:#181818;stroke-width:1;"/><polygon fill="none" points="415.43,485.2394,396.8542,481.3744,398.2503,493.2929,415.43,485.2394" style="stroke:#181818;stroke-width:1;"/></g><!--link manual_match to match--><g class="link" data-entity-1="manual_match" data-entity-2="match" data-source-line="37" data-uid="lnk28" id="link_manual_match_match"><path d="M287.58,444.7894 C329.65,451.9494 364.4349,457.8607 404.0549,464.6007" fill="none" id="manual_match-to-match" style="stroke:#181818;stroke-width:1;"/><polygon fill="none" points="421.8,467.6194,405.0612,458.6856,403.0487,470.5157,421.8,467.6194" style="stroke:#181818;stroke-width:1;"/></g><!--SRC=[ZLBTIiCm6BtFKuJTRm_WXQyYiOqpqBNIfY2eO16dxb_qmgcmJHJc3rKHSNR-l4oJT6zXcgxxwHJCNRvplkyxvoG6NgEGMj0cnNKATM9ZZHBB19HG0qDs_IoERddrOdHL5Yz3CUo8qtxuLMKNNm0WZLespF6sFzezbtL- -9Q3o86kW-qK57vFjChi-4mXI2yH4u1u1pABSdvkSK4ERW4eZvoY8KTI9CvEFD4UHlwJccBZ8d6et357IoQnvZ4Rx2dQXhjg46TzdXL-zxZto6hle_rwE6ZmHZ-gjnIzXAYM8KVUgTGaQP5_7UjJNXHPCn0fPMGcJbiDrdoIBSplyUw0LJhHtkTulecAEADcK0a_keb16QauEaW2t30if6VizUvPkSqw0RzyI4meAZ7Nh8peu3uSVexkQj6ZnryzqQycqRlqFr70FEJj8DNib91DLtv9vg_UC0ZOsqtgrqN6k7a7WFXNm7n-UVfyaqhwKfD2qZIv9cchppC3J- -Bk8eQf9jWeR0y3XKkoSWqmzKn66_z7PnhZKF-ep430IL58N7W4i6R59iw03DHIetRgOdPb6RhFm00]--></g></svg>